<svg width="191" height="75" viewBox="0 0 191 75" fill="none" xmlns="http://www.w3.org/2000/svg">
<path d="M27.7132 30.0997C30.0102 30.5991 31.7745 31.5977 33.0062 33.0958C34.2712 34.5605 34.9037 36.458 34.9037 38.7882C34.9037 41.7842 33.7885 44.0978 31.5581 45.729C29.3611 47.3269 26.0987 48.1258 21.7711 48.1258H5.69245V13.1722H20.7725C24.6673 13.1722 27.68 13.9545 29.8105 15.5191C31.9743 17.0837 33.0562 19.2974 33.0562 22.1603C33.0562 24.091 32.5735 25.7388 31.6081 27.1037C30.676 28.4353 29.3777 29.4339 27.7132 30.0997ZM9.38755 16.2181V28.9013H20.5228C23.3524 28.9013 25.5328 28.3687 27.0641 27.3034C28.5954 26.2049 29.3611 24.6237 29.3611 22.5597C29.3611 20.4958 28.5954 18.9312 27.0641 17.866C25.5328 16.7674 23.3524 16.2181 20.5228 16.2181H9.38755ZM21.7212 45.0799C24.8504 45.0799 27.2139 44.5472 28.8118 43.482C30.4097 42.4167 31.2086 40.7523 31.2086 38.4886C31.2086 34.1277 28.0461 31.9473 21.7212 31.9473H9.38755V45.0799H21.7212ZM43.3378 13.1722H47.0329V44.9301H66.607V48.1258H43.3378V13.1722ZM87.3392 48.4254C83.8772 48.4254 80.7313 47.6598 77.9018 46.1285C75.1055 44.5639 72.9084 42.4334 71.3105 39.7369C69.7459 37.0405 68.9636 34.0112 68.9636 30.649C68.9636 27.2868 69.7459 24.2575 71.3105 21.5611C72.9084 18.8646 75.1055 16.7508 77.9018 15.2195C80.7313 13.6549 83.8772 12.8726 87.3392 12.8726C90.8013 12.8726 93.9139 13.6382 96.6769 15.1695C99.4732 16.7008 101.67 18.8313 103.268 21.5611C104.866 24.2575 105.665 27.2868 105.665 30.649C105.665 34.0112 104.866 37.0572 103.268 39.7869C101.67 42.4833 99.4732 44.5972 96.6769 46.1285C93.9139 47.6598 90.8013 48.4254 87.3392 48.4254ZM87.3392 45.1298C90.1022 45.1298 92.5989 44.5139 94.8293 43.2822C97.0597 42.0173 98.8074 40.2862 100.072 38.0891C101.337 35.8588 101.97 33.3787 101.97 30.649C101.97 27.9193 101.337 25.4559 100.072 23.2588C98.8074 21.0284 97.0597 19.2974 94.8293 18.0657C92.5989 16.8007 90.1022 16.1682 87.3392 16.1682C84.5762 16.1682 82.0629 16.8007 79.7992 18.0657C77.5689 19.2974 75.8045 21.0284 74.5063 23.2588C73.2413 25.4559 72.6088 27.9193 72.6088 30.649C72.6088 33.3787 73.2413 35.8588 74.5063 38.0891C75.8045 40.2862 77.5689 42.0173 79.7992 43.2822C82.0629 44.5139 84.5762 45.1298 87.3392 45.1298ZM130.925 12.573C135.086 12.573 138.332 13.8879 140.662 16.5177C142.992 19.1143 144.157 22.826 144.157 27.653V48.1258H136.068V27.9026C136.068 25.1064 135.402 23.0091 134.071 21.611C132.772 20.1796 130.958 19.4638 128.628 19.4638C126.164 19.4638 124.184 20.2295 122.686 21.7608C121.221 23.2588 120.489 25.4892 120.489 28.4519V48.1258H112.399V13.1722H120.239V17.4166C121.437 15.8187 122.935 14.6203 124.733 13.8213C126.531 12.9891 128.595 12.573 130.925 12.573ZM169.069 48.725C165.441 48.725 162.162 47.9427 159.232 46.3781C156.336 44.8136 154.056 42.6664 152.391 39.9367C150.76 37.1737 149.945 34.0778 149.945 30.649C149.945 27.2202 150.76 24.141 152.391 21.4113C154.056 18.6482 156.336 16.4845 159.232 14.9199C162.162 13.3553 165.441 12.573 169.069 12.573C172.698 12.573 175.96 13.3553 178.856 14.9199C181.752 16.4845 184.033 18.6482 185.697 21.4113C187.362 24.141 188.194 27.2202 188.194 30.649C188.194 34.0778 187.362 37.1737 185.697 39.9367C184.033 42.6664 181.752 44.8136 178.856 46.3781C175.96 47.9427 172.698 48.725 169.069 48.725ZM169.069 41.8342C171.133 41.8342 172.997 41.3681 174.662 40.436C176.326 39.4706 177.624 38.1391 178.557 36.4413C179.522 34.7436 180.005 32.8128 180.005 30.649C180.005 28.4852 179.522 26.5544 178.557 24.8567C177.624 23.1589 176.326 21.844 174.662 20.9119C172.997 19.9465 171.133 19.4638 169.069 19.4638C167.005 19.4638 165.141 19.9465 163.477 20.9119C161.812 21.844 160.497 23.1589 159.532 24.8567C158.6 26.5544 158.134 28.4852 158.134 30.649C158.134 32.8128 158.6 34.7436 159.532 36.4413C160.497 38.1391 161.812 39.4706 163.477 40.436C165.141 41.3681 167.005 41.8342 169.069 41.8342Z" fill="white"/>
<path d="M4.96021 59.3093C49.0882 80.7712 47.034 48.2242 85.9205 59.3093" stroke="white" stroke-width="3.31126" stroke-linecap="round"/>
<path d="M91.4363 69.8742L94.4568 54.7719H99.872C101.382 54.7719 102.648 55.0236 103.669 55.527C104.705 56.0304 105.481 56.7352 105.999 57.6414C106.531 58.5475 106.797 59.6046 106.797 60.8128C106.797 62.1217 106.575 63.3299 106.129 64.4374C105.697 65.5449 105.072 66.5085 104.252 67.3284C103.432 68.1338 102.439 68.7595 101.274 69.2054C100.124 69.6512 98.8292 69.8742 97.3909 69.8742H91.4363ZM91.9541 69.4643H97.4341C99.2607 69.4643 100.836 69.0975 102.159 68.364C103.497 67.616 104.532 66.5948 105.266 65.3004C105.999 63.9915 106.366 62.4956 106.366 60.8128C106.366 59.6909 106.121 58.7057 105.632 57.8571C105.158 57.0085 104.439 56.3541 103.475 55.8938C102.511 55.4192 101.296 55.1818 99.8289 55.1818H94.802L91.9541 69.4643ZM124.967 61.9994H133.403L133.316 62.4093H124.881L124.967 61.9994ZM123.586 69.4643H133.209L133.122 69.8742H123.068L126.089 54.7719H135.819L135.733 55.1818H126.434L123.586 69.4643ZM155.219 69.8742L151.444 54.7719H151.897L155.564 69.5074H155.37L164.949 54.7719H165.467L155.651 69.8742H155.219ZM182.948 69.9389C182.244 69.9389 181.546 69.8454 180.856 69.6584C180.18 69.4714 179.576 69.2197 179.043 68.9033C178.511 68.5869 178.108 68.2273 177.835 67.8246L178.18 67.5441C178.454 67.9181 178.842 68.2561 179.345 68.5581C179.849 68.8602 180.417 69.0975 181.05 69.2701C181.683 69.4427 182.323 69.529 182.97 69.529C183.991 69.529 184.897 69.3852 185.688 69.0975C186.479 68.7954 187.098 68.3568 187.544 67.7814C187.99 67.2061 188.213 66.5085 188.213 65.6887C188.213 65.099 188.062 64.6243 187.76 64.2648C187.472 63.8908 187.084 63.5888 186.595 63.3586C186.12 63.1285 185.595 62.9343 185.02 62.7761C184.444 62.6179 183.869 62.4525 183.294 62.2799C182.718 62.0929 182.186 61.8772 181.697 61.6327C181.222 61.3738 180.834 61.0358 180.532 60.6187C180.244 60.2015 180.101 59.6694 180.101 59.0221C180.101 58.0872 180.345 57.3033 180.834 56.6705C181.323 56.0233 181.985 55.5342 182.819 55.2034C183.653 54.8726 184.595 54.7072 185.645 54.7072C186.465 54.7072 187.263 54.8223 188.04 55.0524C188.817 55.2825 189.471 55.6133 190.003 56.0448L189.723 56.4116C189.191 55.9945 188.572 55.6781 187.867 55.4623C187.177 55.2322 186.436 55.1171 185.645 55.1171C184.653 55.1171 183.768 55.2681 182.992 55.5702C182.215 55.8722 181.604 56.3109 181.158 56.8862C180.726 57.4616 180.51 58.1591 180.51 58.979C180.51 59.5687 180.654 60.0505 180.942 60.4245C181.244 60.7984 181.632 61.1077 182.107 61.3522C182.596 61.5823 183.128 61.7837 183.704 61.9563C184.293 62.1145 184.876 62.2799 185.451 62.4525C186.026 62.6251 186.551 62.8408 187.026 63.0997C187.515 63.3586 187.903 63.6894 188.191 64.0922C188.493 64.4949 188.644 65.0199 188.644 65.6671C188.644 66.6164 188.385 67.4075 187.867 68.0403C187.364 68.6732 186.681 69.1478 185.818 69.4643C184.969 69.7807 184.013 69.9389 182.948 69.9389Z" fill="white"/>
</svg>
